<mxfile host="app.diagrams.net" modified="2021-09-28T14:55:15.364Z" agent="5.0 (X11)" etag="TUjUGr8DTPA0C9VgNIl9" version="15.3.1" type="github" pages="6">
  <diagram id="C5RBs43oDa-KdzZeNtuy" name="inbox">
    <mxGraphModel dx="-772" dy="-1730" grid="1" gridSize="10" guides="1" tooltips="1" connect="1" arrows="1" fold="1" page="0" pageScale="1" pageWidth="850" pageHeight="1100" math="0" shadow="0">
      <root>
        <mxCell id="WIyWlLk6GJQsqaUBKTNV-0" />
        <mxCell id="WIyWlLk6GJQsqaUBKTNV-1" parent="WIyWlLk6GJQsqaUBKTNV-0" />
        <mxCell id="XGWsrecttMS9lB-RMu0K-0" value="CLP 1410" style="rounded=1;whiteSpace=wrap;html=1;fontStyle=1;arcSize=5;align=left;verticalAlign=top;spacingLeft=8;spacingTop=8;fontSize=19;strokeColor=#d6b656;fillColor=#fff2cc;spacingBottom=16;spacing=8;container=1;dropTarget=1;recursiveResize=1;collapsible=0;fontFamily=Merriweather sans;fontSource=https%3A%2F%2Ffonts.googleapis.com%2Fcss%3Ffamily%3DMerriweather%2Bsans;" parent="WIyWlLk6GJQsqaUBKTNV-1" vertex="1">
          <mxGeometry x="3660" y="3390" width="244" height="195" as="geometry" />
        </mxCell>
        <UserObject label="ticket link" link="https://revzilla.atlassian.net/browse/CLP-1410" id="XGWsrecttMS9lB-RMu0K-1">
          <mxCell style="text;whiteSpace=wrap;html=1;fontSize=17;" parent="XGWsrecttMS9lB-RMu0K-0" vertex="1">
            <mxGeometry x="285" y="57.21" width="74.99" height="34" as="geometry" />
          </mxCell>
        </UserObject>
        <UserObject label="diagram for VENDOR 445" link="https://app.diagrams.net/?client=1#HumamiMike%2Ftechnical-mess-diagrams%2Fmaster%2FVENDOR-445.drawio" id="XGWsrecttMS9lB-RMu0K-2">
          <mxCell style="rounded=1;whiteSpace=wrap;html=1;fontStyle=1;arcSize=5;align=left;verticalAlign=top;spacingLeft=8;spacingTop=8;fontSize=19;strokeColor=#d6b656;fillColor=#fff2cc;spacingBottom=16;spacing=8;container=1;dropTarget=1;recursiveResize=1;collapsible=0;fontFamily=Merriweather sans;fontSource=https%3A%2F%2Ffonts.googleapis.com%2Fcss%3Ffamily%3DMerriweather%2Bsans;" parent="WIyWlLk6GJQsqaUBKTNV-1" vertex="1">
            <mxGeometry x="4096" y="3486" width="624" height="99" as="geometry" />
          </mxCell>
        </UserObject>
        <mxCell id="IZxSpuK1Vqr3n79-WZ3M-0" value="zillacash" style="swimlane;html=0;startSize=29;childLayout=stackLayout;horizontalStack=0;stackBorder=8;stackSpacing=8;resizeLast=0;resizeParent=1;swimlaneLine=0;swimlaneFillColor=#E6E6E6;dropTarget=1;collapsible=0;container=1;verticalAlign=middle;fontSize=20;fontStyle=1;labelPosition=center;verticalLabelPosition=middle;align=center;rounded=1;arcSize=7;autosize=0;perimeterSpacing=1;horizontal=1;allowArrows=0;fontFamily=Merriweather sans;fontSource=https%3A%2F%2Ffonts.googleapis.com%2Fcss%3Ffamily%3DMerriweather%2Bsans;fontColor=#454545;labelBorderColor=none;strokeColor=#616161;fillColor=#BFBFBF;" parent="WIyWlLk6GJQsqaUBKTNV-1" vertex="1">
          <mxGeometry x="6000" y="6030" width="420" height="770" as="geometry" />
        </mxCell>
        <mxCell id="IZxSpuK1Vqr3n79-WZ3M-32" value="do not earn zillacash when you sign up for rpm " style="rounded=1;whiteSpace=wrap;html=1;fontSize=12;startSize=0;align=left;labelPosition=center;verticalLabelPosition=middle;verticalAlign=top;shadow=0;fontFamily=Merriweather sans;fontStyle=0;strokeColor=#666666;fillColor=#f5f5f5;arcSize=9;spacingTop=1;spacingLeft=8;fontSource=https%3A%2F%2Ffonts.googleapis.com%2Fcss%3Ffamily%3DMerriweather%2Bsans;fontColor=#333333;autosize=1;spacing=8;" parent="IZxSpuK1Vqr3n79-WZ3M-0" vertex="1">
          <mxGeometry x="8" y="37" width="404" height="40" as="geometry" />
        </mxCell>
        <mxCell id="IZxSpuK1Vqr3n79-WZ3M-1" value="free to join " style="rounded=1;whiteSpace=wrap;html=1;fontSize=12;startSize=0;align=left;labelPosition=center;verticalLabelPosition=middle;verticalAlign=top;shadow=0;fontFamily=Merriweather sans;fontStyle=0;strokeColor=#666666;fillColor=#f5f5f5;arcSize=9;spacingTop=1;spacingLeft=8;fontSource=https%3A%2F%2Ffonts.googleapis.com%2Fcss%3Ffamily%3DMerriweather%2Bsans;fontColor=#333333;autosize=1;spacing=8;" parent="IZxSpuK1Vqr3n79-WZ3M-0" vertex="1">
          <mxGeometry x="8" y="85" width="404" height="40" as="geometry" />
        </mxCell>
        <mxCell id="IZxSpuK1Vqr3n79-WZ3M-40" value="rpm bucket " style="rounded=1;whiteSpace=wrap;html=1;fontSize=12;startSize=0;align=left;labelPosition=center;verticalLabelPosition=middle;verticalAlign=top;shadow=0;fontFamily=Merriweather sans;fontStyle=0;strokeColor=#666666;fillColor=#f5f5f5;arcSize=9;spacingTop=1;spacingLeft=8;fontSource=https%3A%2F%2Ffonts.googleapis.com%2Fcss%3Ffamily%3DMerriweather%2Bsans;fontColor=#333333;autosize=1;spacing=8;" parent="IZxSpuK1Vqr3n79-WZ3M-0" vertex="1">
          <mxGeometry x="8" y="133" width="404" height="40" as="geometry" />
        </mxCell>
        <mxCell id="IZxSpuK1Vqr3n79-WZ3M-41" value="when do you enroll somebody in zillacash? " style="rounded=1;whiteSpace=wrap;html=1;fontSize=12;startSize=0;align=left;labelPosition=center;verticalLabelPosition=middle;verticalAlign=top;shadow=0;fontFamily=Merriweather sans;fontStyle=0;strokeColor=#666666;fillColor=#f5f5f5;arcSize=9;spacingTop=1;spacingLeft=0;fontSource=https%3A%2F%2Ffonts.googleapis.com%2Fcss%3Ffamily%3DMerriweather%2Bsans;fontColor=#333333;autosize=1;spacing=8;" parent="IZxSpuK1Vqr3n79-WZ3M-0" vertex="1">
          <mxGeometry x="8" y="181" width="404" height="40" as="geometry" />
        </mxCell>
        <mxCell id="IZxSpuK1Vqr3n79-WZ3M-4" value="can expire " style="rounded=1;whiteSpace=wrap;html=1;fontSize=12;startSize=0;align=left;labelPosition=center;verticalLabelPosition=middle;verticalAlign=top;shadow=0;fontFamily=Merriweather sans;fontStyle=0;strokeColor=#666666;fillColor=#f5f5f5;arcSize=9;spacingTop=1;spacingLeft=0;fontSource=https%3A%2F%2Ffonts.googleapis.com%2Fcss%3Ffamily%3DMerriweather%2Bsans;fontColor=#333333;autosize=1;spacing=8;" parent="IZxSpuK1Vqr3n79-WZ3M-0" vertex="1">
          <mxGeometry x="8" y="229" width="404" height="40" as="geometry" />
        </mxCell>
        <mxCell id="IZxSpuK1Vqr3n79-WZ3M-3" value="no redeemable value " style="rounded=1;whiteSpace=wrap;html=1;fontSize=12;startSize=0;align=left;labelPosition=center;verticalLabelPosition=middle;verticalAlign=top;shadow=0;fontFamily=Merriweather sans;fontStyle=0;strokeColor=#666666;fillColor=#f5f5f5;arcSize=9;spacingTop=1;spacingLeft=0;fontSource=https%3A%2F%2Ffonts.googleapis.com%2Fcss%3Ffamily%3DMerriweather%2Bsans;fontColor=#333333;autosize=1;spacing=8;" parent="IZxSpuK1Vqr3n79-WZ3M-0" vertex="1">
          <mxGeometry x="8" y="277" width="404" height="40" as="geometry" />
        </mxCell>
        <mxCell id="IZxSpuK1Vqr3n79-WZ3M-2" value="over 450 you get 5% (same as rpm) " style="rounded=1;whiteSpace=wrap;html=1;fontSize=12;startSize=0;align=left;labelPosition=center;verticalLabelPosition=middle;verticalAlign=top;shadow=0;fontFamily=Merriweather sans;fontStyle=0;strokeColor=#666666;fillColor=#f5f5f5;arcSize=9;spacingTop=1;spacingLeft=0;fontSource=https%3A%2F%2Ffonts.googleapis.com%2Fcss%3Ffamily%3DMerriweather%2Bsans;fontColor=#333333;autosize=1;spacing=8;" parent="IZxSpuK1Vqr3n79-WZ3M-0" vertex="1">
          <mxGeometry x="8" y="325" width="404" height="40" as="geometry" />
        </mxCell>
        <mxCell id="IZxSpuK1Vqr3n79-WZ3M-39" value="&lt;div&gt;store credit bucket &lt;br&gt;&lt;/div&gt;&lt;div&gt;&lt;br&gt;&lt;/div&gt;" style="rounded=1;whiteSpace=wrap;html=1;fontSize=12;startSize=0;align=left;labelPosition=center;verticalLabelPosition=middle;verticalAlign=top;shadow=0;fontFamily=Merriweather sans;fontStyle=0;strokeColor=#666666;fillColor=#f5f5f5;arcSize=9;spacingTop=0;spacingLeft=0;fontSource=https%3A%2F%2Ffonts.googleapis.com%2Fcss%3Ffamily%3DMerriweather%2Bsans;fontColor=#333333;autosize=1;spacing=8;" parent="IZxSpuK1Vqr3n79-WZ3M-0" vertex="1">
          <mxGeometry x="8" y="373" width="404" height="50" as="geometry" />
        </mxCell>
        <mxCell id="IZxSpuK1Vqr3n79-WZ3M-45" value="complexity" style="swimlane;html=0;startSize=38;childLayout=stackLayout;horizontalStack=0;stackBorder=8;stackSpacing=8;resizeLast=0;resizeParent=1;swimlaneLine=0;swimlaneFillColor=#D1D1D1;dropTarget=1;collapsible=0;container=1;verticalAlign=middle;fontSize=17;fontStyle=1;labelPosition=center;verticalLabelPosition=middle;align=center;rounded=1;arcSize=7;autosize=1;perimeterSpacing=1;horizontal=1;allowArrows=0;fontFamily=Merriweather sans;fontSource=https%3A%2F%2Ffonts.googleapis.com%2Fcss%3Ffamily%3DMerriweather%2Bsans;fontColor=#454545;labelBorderColor=none;strokeColor=#616161;fillColor=#BFBFBF;resizeHeight=1;" parent="IZxSpuK1Vqr3n79-WZ3M-0" vertex="1">
          <mxGeometry x="8" y="431" width="404" height="142" as="geometry" />
        </mxCell>
        <mxCell id="IZxSpuK1Vqr3n79-WZ3M-11" value="more complex than a simple balance " style="rounded=1;whiteSpace=wrap;html=1;fontSize=12;startSize=0;align=left;labelPosition=center;verticalLabelPosition=middle;verticalAlign=top;shadow=0;fontFamily=Merriweather sans;fontStyle=0;strokeColor=#666666;fillColor=#f5f5f5;arcSize=9;spacingTop=1;spacingLeft=0;fontSource=https%3A%2F%2Ffonts.googleapis.com%2Fcss%3Ffamily%3DMerriweather%2Bsans;fontColor=#333333;autosize=1;spacing=8;" parent="IZxSpuK1Vqr3n79-WZ3M-45" vertex="1">
          <mxGeometry x="8" y="46" width="388" height="40" as="geometry" />
        </mxCell>
        <mxCell id="IZxSpuK1Vqr3n79-WZ3M-38" value="zillacash = sum of 4 buckets " style="rounded=1;whiteSpace=wrap;html=1;fontSize=12;startSize=0;align=left;labelPosition=center;verticalLabelPosition=middle;verticalAlign=top;shadow=0;fontFamily=Merriweather sans;fontStyle=0;strokeColor=#666666;fillColor=#f5f5f5;arcSize=9;spacingTop=1;spacingLeft=0;fontSource=https%3A%2F%2Ffonts.googleapis.com%2Fcss%3Ffamily%3DMerriweather%2Bsans;fontColor=#333333;autosize=1;spacing=8;" parent="IZxSpuK1Vqr3n79-WZ3M-45" vertex="1">
          <mxGeometry x="8" y="94" width="388" height="40" as="geometry" />
        </mxCell>
        <mxCell id="IZxSpuK1Vqr3n79-WZ3M-5" value="rpm" style="swimlane;html=0;startSize=60;childLayout=stackLayout;horizontalStack=0;stackBorder=8;stackSpacing=8;resizeLast=0;resizeParent=1;swimlaneLine=0;swimlaneFillColor=#E6E6E6;dropTarget=1;collapsible=0;container=1;verticalAlign=middle;fontSize=27;fontStyle=1;labelPosition=center;verticalLabelPosition=middle;align=center;rounded=1;arcSize=7;autosize=0;perimeterSpacing=4;horizontal=1;allowArrows=0;fontFamily=Merriweather sans;fontSource=https%3A%2F%2Ffonts.googleapis.com%2Fcss%3Ffamily%3DMerriweather%2Bsans;fontColor=#454545;labelBorderColor=none;strokeColor=#616161;fillColor=#BFBFBF;" parent="WIyWlLk6GJQsqaUBKTNV-1" vertex="1">
          <mxGeometry x="6670" y="5580" width="467" height="769" as="geometry" />
        </mxCell>
        <mxCell id="IZxSpuK1Vqr3n79-WZ3M-6" value="costs money" style="rounded=1;whiteSpace=wrap;html=1;fontSize=12;startSize=0;align=left;labelPosition=center;verticalLabelPosition=middle;verticalAlign=top;shadow=0;fontFamily=Merriweather sans;fontStyle=0;strokeColor=#666666;fillColor=#f5f5f5;arcSize=9;spacingTop=1;spacingLeft=8;fontSource=https%3A%2F%2Ffonts.googleapis.com%2Fcss%3Ffamily%3DMerriweather%2Bsans;fontColor=#333333;autosize=1;spacing=8;" parent="IZxSpuK1Vqr3n79-WZ3M-5" vertex="1">
          <mxGeometry x="8" y="68" width="451" height="40" as="geometry" />
        </mxCell>
        <mxCell id="IZxSpuK1Vqr3n79-WZ3M-36" value="stands for riders plus membership" style="rounded=1;whiteSpace=wrap;html=1;fontSize=12;startSize=0;align=left;labelPosition=center;verticalLabelPosition=middle;verticalAlign=top;shadow=0;fontFamily=Merriweather sans;fontStyle=0;strokeColor=#666666;fillColor=#f5f5f5;arcSize=9;spacingTop=1;spacingLeft=8;fontSource=https%3A%2F%2Ffonts.googleapis.com%2Fcss%3Ffamily%3DMerriweather%2Bsans;fontColor=#333333;autosize=1;spacing=8;" parent="IZxSpuK1Vqr3n79-WZ3M-5" vertex="1">
          <mxGeometry x="8" y="116" width="451" height="40" as="geometry" />
        </mxCell>
        <mxCell id="IZxSpuK1Vqr3n79-WZ3M-7" value="&amp;nbsp;you get 5%" style="rounded=1;whiteSpace=wrap;html=1;fontSize=12;startSize=0;align=left;labelPosition=center;verticalLabelPosition=middle;verticalAlign=top;shadow=0;fontFamily=Merriweather sans;fontStyle=0;strokeColor=#666666;fillColor=#f5f5f5;arcSize=9;spacingTop=1;spacingLeft=8;fontSource=https%3A%2F%2Ffonts.googleapis.com%2Fcss%3Ffamily%3DMerriweather%2Bsans;fontColor=#333333;autosize=1;spacing=8;" parent="IZxSpuK1Vqr3n79-WZ3M-5" vertex="1">
          <mxGeometry x="8" y="164" width="451" height="40" as="geometry" />
        </mxCell>
        <mxCell id="IZxSpuK1Vqr3n79-WZ3M-8" value="can redeem?" style="rounded=1;whiteSpace=wrap;html=1;fontSize=12;startSize=0;align=left;labelPosition=center;verticalLabelPosition=middle;verticalAlign=top;shadow=0;fontFamily=Merriweather sans;fontStyle=0;strokeColor=#666666;fillColor=#f5f5f5;arcSize=9;spacingTop=1;spacingLeft=8;fontSource=https%3A%2F%2Ffonts.googleapis.com%2Fcss%3Ffamily%3DMerriweather%2Bsans;fontColor=#333333;autosize=1;spacing=8;" parent="IZxSpuK1Vqr3n79-WZ3M-5" vertex="1">
          <mxGeometry x="8" y="212" width="451" height="40" as="geometry" />
        </mxCell>
        <mxCell id="IZxSpuK1Vqr3n79-WZ3M-9" value="doesnt expire" style="rounded=1;whiteSpace=wrap;html=1;fontSize=12;startSize=0;align=left;labelPosition=center;verticalLabelPosition=middle;verticalAlign=top;shadow=0;fontFamily=Merriweather sans;fontStyle=0;strokeColor=#666666;fillColor=#f5f5f5;arcSize=9;spacingTop=1;spacingLeft=8;fontSource=https%3A%2F%2Ffonts.googleapis.com%2Fcss%3Ffamily%3DMerriweather%2Bsans;fontColor=#333333;autosize=1;spacing=8;" parent="IZxSpuK1Vqr3n79-WZ3M-5" vertex="1">
          <mxGeometry x="8" y="260" width="451" height="40" as="geometry" />
        </mxCell>
        <mxCell id="IZxSpuK1Vqr3n79-WZ3M-28" value="do not earn zillacash when you sign up for rpm" style="rounded=1;whiteSpace=wrap;html=1;fontSize=12;startSize=0;align=left;labelPosition=center;verticalLabelPosition=middle;verticalAlign=top;shadow=0;fontFamily=Merriweather sans;fontStyle=0;strokeColor=#666666;fillColor=#f5f5f5;arcSize=9;spacingTop=1;spacingLeft=8;fontSource=https%3A%2F%2Ffonts.googleapis.com%2Fcss%3Ffamily%3DMerriweather%2Bsans;fontColor=#333333;autosize=1;spacing=8;" parent="IZxSpuK1Vqr3n79-WZ3M-5" vertex="1">
          <mxGeometry x="8" y="308" width="451" height="40" as="geometry" />
        </mxCell>
        <mxCell id="IZxSpuK1Vqr3n79-WZ3M-21" value="4 zillacash buckets" style="swimlane;html=0;startSize=39;childLayout=stackLayout;horizontalStack=0;stackBorder=8;stackSpacing=8;resizeLast=0;resizeParent=1;swimlaneLine=0;swimlaneFillColor=#D1D1D1;dropTarget=1;collapsible=0;container=1;verticalAlign=middle;fontSize=17;fontStyle=1;labelPosition=center;verticalLabelPosition=middle;align=center;rounded=1;arcSize=7;autosize=1;perimeterSpacing=1;horizontal=1;allowArrows=0;fontFamily=Merriweather sans;fontSource=https%3A%2F%2Ffonts.googleapis.com%2Fcss%3Ffamily%3DMerriweather%2Bsans;fontColor=#454545;labelBorderColor=none;strokeColor=#616161;fillColor=#BFBFBF;resizeHeight=1;" parent="WIyWlLk6GJQsqaUBKTNV-1" vertex="1">
          <mxGeometry x="6770" y="6420" width="451" height="239" as="geometry" />
        </mxCell>
        <mxCell id="IZxSpuK1Vqr3n79-WZ3M-12" value="customer service bucket " style="rounded=1;whiteSpace=wrap;html=1;fontSize=12;startSize=0;align=left;labelPosition=center;verticalLabelPosition=middle;verticalAlign=top;shadow=0;fontFamily=Merriweather sans;fontStyle=0;strokeColor=#666666;fillColor=#f5f5f5;arcSize=9;spacingTop=0;spacingLeft=0;fontSource=https%3A%2F%2Ffonts.googleapis.com%2Fcss%3Ffamily%3DMerriweather%2Bsans;fontColor=#333333;spacing=8;autosize=1;" parent="IZxSpuK1Vqr3n79-WZ3M-21" vertex="1">
          <mxGeometry x="8" y="47" width="435" height="40" as="geometry" />
        </mxCell>
        <mxCell id="IZxSpuK1Vqr3n79-WZ3M-37" value="new user benefit of some sort " style="rounded=1;whiteSpace=wrap;html=1;fontSize=12;startSize=0;align=left;labelPosition=center;verticalLabelPosition=middle;verticalAlign=top;shadow=0;fontFamily=Merriweather sans;fontStyle=0;strokeColor=#666666;fillColor=#f5f5f5;arcSize=9;spacingTop=0;spacingLeft=0;fontSource=https%3A%2F%2Ffonts.googleapis.com%2Fcss%3Ffamily%3DMerriweather%2Bsans;fontColor=#333333;spacing=8;autosize=1;" parent="IZxSpuK1Vqr3n79-WZ3M-21" vertex="1">
          <mxGeometry x="8" y="95" width="435" height="40" as="geometry" />
        </mxCell>
        <mxCell id="IZxSpuK1Vqr3n79-WZ3M-42" value="referral " style="rounded=1;whiteSpace=wrap;html=1;fontSize=12;startSize=0;align=left;labelPosition=center;verticalLabelPosition=middle;verticalAlign=top;shadow=0;fontFamily=Merriweather sans;fontStyle=0;strokeColor=#666666;fillColor=#f5f5f5;arcSize=9;spacingTop=0;spacingLeft=0;fontSource=https%3A%2F%2Ffonts.googleapis.com%2Fcss%3Ffamily%3DMerriweather%2Bsans;fontColor=#333333;spacing=8;autosize=1;" parent="IZxSpuK1Vqr3n79-WZ3M-21" vertex="1">
          <mxGeometry x="8" y="143" width="435" height="40" as="geometry" />
        </mxCell>
        <mxCell id="IZxSpuK1Vqr3n79-WZ3M-20" value="&lt;div&gt;loyalty&lt;/div&gt;" style="rounded=1;whiteSpace=wrap;html=1;fontSize=12;startSize=0;align=left;labelPosition=center;verticalLabelPosition=middle;verticalAlign=top;shadow=0;fontFamily=Merriweather sans;fontStyle=0;strokeColor=#666666;fillColor=#f5f5f5;arcSize=9;spacingTop=0;spacingLeft=0;fontSource=https%3A%2F%2Ffonts.googleapis.com%2Fcss%3Ffamily%3DMerriweather%2Bsans;fontColor=#333333;spacing=8;autosize=1;" parent="IZxSpuK1Vqr3n79-WZ3M-21" vertex="1">
          <mxGeometry x="8" y="191" width="435" height="40" as="geometry" />
        </mxCell>
        <mxCell id="IZxSpuK1Vqr3n79-WZ3M-44" style="rounded=0;orthogonalLoop=1;jettySize=auto;html=1;exitX=1;exitY=0.5;exitDx=0;exitDy=0;entryX=0;entryY=0;entryDx=0;entryDy=0;fontSize=21;" parent="WIyWlLk6GJQsqaUBKTNV-1" source="IZxSpuK1Vqr3n79-WZ3M-38" target="IZxSpuK1Vqr3n79-WZ3M-21" edge="1">
          <mxGeometry relative="1" as="geometry" />
        </mxCell>
        <UserObject label="cp 2345" link="data:page/id,0HrBhqJpiohKNROaSmBl" id="JqBsoodp6zVxTvjz_Dbs-0">
          <mxCell style="rounded=1;whiteSpace=wrap;html=1;fontStyle=1;arcSize=3;align=left;verticalAlign=top;spacingLeft=8;spacingTop=8;fontSize=19;fontColor=#333333;strokeColor=#666666;fillColor=#E6E6E6;spacingBottom=16;spacing=8;container=1;dropTarget=1;recursiveResize=0;collapsible=0;fontFamily=Merriweather sans;fontSource=https%3A%2F%2Ffonts.googleapis.com%2Fcss%3Ffamily%3DMerriweather%2Bsans;movable=0;resizable=0;rotatable=0;deletable=0;editable=0;connectable=0;" parent="WIyWlLk6GJQsqaUBKTNV-1" vertex="1">
            <mxGeometry x="3685" y="3900" width="1020" height="570" as="geometry" />
          </mxCell>
        </UserObject>
        <mxCell id="IZxSpuK1Vqr3n79-WZ3M-29" value="if rpm membership expires" style="swimlane;html=0;startSize=29;childLayout=stackLayout;horizontalStack=0;stackBorder=23;stackSpacing=8;resizeLast=0;resizeParent=1;swimlaneLine=0;swimlaneFillColor=#E6E6E6;dropTarget=1;collapsible=0;container=1;verticalAlign=middle;fontSize=21;fontStyle=1;labelPosition=center;verticalLabelPosition=middle;align=center;rounded=1;arcSize=7;autosize=0;perimeterSpacing=1;horizontal=1;allowArrows=0;fontFamily=Merriweather sans;fontSource=https%3A%2F%2Ffonts.googleapis.com%2Fcss%3Ffamily%3DMerriweather%2Bsans;fontColor=#454545;labelBorderColor=none;strokeColor=#616161;fillColor=#BFBFBF;" parent="WIyWlLk6GJQsqaUBKTNV-1" vertex="1">
          <mxGeometry x="7400" y="5610" width="451" height="163" as="geometry" />
        </mxCell>
        <mxCell id="IZxSpuK1Vqr3n79-WZ3M-30" value="&lt;div&gt;retain rpm cash&lt;/div&gt;" style="rounded=1;whiteSpace=wrap;html=1;fontSize=12;startSize=0;align=left;labelPosition=center;verticalLabelPosition=middle;verticalAlign=top;shadow=0;fontFamily=Merriweather sans;fontStyle=0;strokeColor=#666666;fillColor=#f5f5f5;arcSize=9;spacingTop=1;spacingLeft=8;fontSource=https%3A%2F%2Ffonts.googleapis.com%2Fcss%3Ffamily%3DMerriweather%2Bsans;fontColor=#333333;autosize=1;spacing=8;" parent="IZxSpuK1Vqr3n79-WZ3M-29" vertex="1">
          <mxGeometry x="23" y="52" width="405" height="40" as="geometry" />
        </mxCell>
        <mxCell id="IZxSpuK1Vqr3n79-WZ3M-35" value="now can hire " style="rounded=1;whiteSpace=wrap;html=1;fontSize=12;startSize=0;align=left;labelPosition=center;verticalLabelPosition=middle;verticalAlign=top;shadow=0;fontFamily=Merriweather sans;fontStyle=0;strokeColor=#666666;fillColor=#f5f5f5;arcSize=9;spacingTop=1;spacingLeft=8;fontSource=https%3A%2F%2Ffonts.googleapis.com%2Fcss%3Ffamily%3DMerriweather%2Bsans;fontColor=#333333;autosize=1;spacing=8;" parent="IZxSpuK1Vqr3n79-WZ3M-29" vertex="1">
          <mxGeometry x="23" y="100" width="405" height="40" as="geometry" />
        </mxCell>
      </root>
    </mxGraphModel>
  </diagram>
  <diagram id="WySVT0Ndezc4DhmYAPEs" name="loyalty-diagram">
    <mxGraphModel dx="-1565" dy="-2562" grid="1" gridSize="10" guides="1" tooltips="1" connect="1" arrows="1" fold="1" page="1" pageScale="1" pageWidth="850" pageHeight="1100" math="0" shadow="0">
      <root>
        <mxCell id="m8sjC8u_sM0VH_ZlLgdD-0" />
        <mxCell id="m8sjC8u_sM0VH_ZlLgdD-1" parent="m8sjC8u_sM0VH_ZlLgdD-0" />
        <mxCell id="m8sjC8u_sM0VH_ZlLgdD-2" value="clp 2341" style="rounded=1;whiteSpace=wrap;html=1;fontStyle=1;arcSize=4;align=left;verticalAlign=top;spacingLeft=8;spacingTop=8;fontSize=19;fontColor=#333333;strokeColor=#666666;fillColor=#E6E6E6;spacingBottom=16;spacing=8;container=1;dropTarget=1;recursiveResize=1;collapsible=0;fontFamily=Merriweather sans;fontSource=https%3A%2F%2Ffonts.googleapis.com%2Fcss%3Ffamily%3DMerriweather%2Bsans;movable=1;resizable=1;rotatable=1;deletable=1;editable=1;connectable=1;" parent="m8sjC8u_sM0VH_ZlLgdD-1" vertex="1">
          <mxGeometry x="5261" y="4574" width="1456" height="790" as="geometry" />
        </mxCell>
        <UserObject label="https://revzilla.atlassian.net/browse/CLP-2341" link="https://revzilla.atlassian.net/browse/CLP-2341" id="m8sjC8u_sM0VH_ZlLgdD-3">
          <mxCell style="text;whiteSpace=wrap;html=1;" parent="m8sjC8u_sM0VH_ZlLgdD-2" vertex="1">
            <mxGeometry x="145.25687352710133" y="14" width="982.3367792615868" height="28" as="geometry" />
          </mxCell>
        </UserObject>
        <mxCell id="m8sjC8u_sM0VH_ZlLgdD-4" value="all requests " style="rounded=1;whiteSpace=wrap;html=1;fontStyle=1;arcSize=5;align=left;verticalAlign=top;spacingLeft=8;spacingTop=8;fontSize=19;fontColor=#333333;strokeColor=#666666;fillColor=#E6E6E6;spacingBottom=16;spacing=8;container=1;dropTarget=1;recursiveResize=1;collapsible=0;fontFamily=Merriweather sans;fontSource=https%3A%2F%2Ffonts.googleapis.com%2Fcss%3Ffamily%3DMerriweather%2Bsans;" parent="m8sjC8u_sM0VH_ZlLgdD-2" vertex="1">
          <mxGeometry x="128.99738413197173" y="191" width="279.0761979575805" height="244" as="geometry" />
        </mxCell>
        <mxCell id="m8sjC8u_sM0VH_ZlLgdD-5" value="every time customer id is available " style="rounded=1;whiteSpace=wrap;html=1;fontSize=12;startSize=0;align=left;labelPosition=center;verticalLabelPosition=middle;verticalAlign=top;shadow=0;fontFamily=Merriweather sans;fontStyle=0;strokeColor=#666666;fillColor=#f5f5f5;arcSize=14;spacingTop=1;spacingLeft=8;fontSource=https%3A%2F%2Ffonts.googleapis.com%2Fcss%3Ffamily%3DMerriweather%2Bsans;fontColor=#333333;" parent="m8sjC8u_sM0VH_ZlLgdD-2" vertex="1">
          <mxGeometry x="621.9955930871956" y="211" width="349.98900235663785" height="28" as="geometry" />
        </mxCell>
        <mxCell id="m8sjC8u_sM0VH_ZlLgdD-6" value="Verify this using the retry queue GUI inside Admin." style="rounded=1;whiteSpace=wrap;html=1;fontSize=12;align=center;strokeColor=#6c8ebf;fillColor=#dae8fc;" parent="m8sjC8u_sM0VH_ZlLgdD-2" vertex="1">
          <mxGeometry x="721.9968578161822" y="338" width="349.98900235663785" height="47" as="geometry" />
        </mxCell>
        <mxCell id="m8sjC8u_sM0VH_ZlLgdD-7" value="retry queue" style="rounded=1;whiteSpace=wrap;html=1;fontSize=20;startSize=0;align=left;strokeColor=none;shadow=0;direction=south;fillColor=#D6B48D;" parent="m8sjC8u_sM0VH_ZlLgdD-2" vertex="1">
          <mxGeometry x="673.004328358209" y="255" width="349.98900235663785" height="52" as="geometry" />
        </mxCell>
        <mxCell id="m8sjC8u_sM0VH_ZlLgdD-8" value="" style="edgeStyle=none;rounded=0;orthogonalLoop=1;jettySize=auto;html=1;fontSize=10;startSize=11;endSize=10;strokeColor=#FF0080;" parent="m8sjC8u_sM0VH_ZlLgdD-1" source="m8sjC8u_sM0VH_ZlLgdD-13" target="m8sjC8u_sM0VH_ZlLgdD-14" edge="1">
          <mxGeometry relative="1" as="geometry" />
        </mxCell>
        <mxCell id="m8sjC8u_sM0VH_ZlLgdD-9" style="edgeStyle=none;rounded=0;orthogonalLoop=1;jettySize=auto;html=1;fontSize=10;startSize=11;endSize=10;strokeColor=#FF0080;" parent="m8sjC8u_sM0VH_ZlLgdD-1" source="m8sjC8u_sM0VH_ZlLgdD-13" target="m8sjC8u_sM0VH_ZlLgdD-15" edge="1">
          <mxGeometry relative="1" as="geometry" />
        </mxCell>
        <mxCell id="m8sjC8u_sM0VH_ZlLgdD-10" value="" style="edgeStyle=none;rounded=0;orthogonalLoop=1;jettySize=auto;html=1;fontSize=10;startSize=11;endSize=10;strokeColor=#FF0080;" parent="m8sjC8u_sM0VH_ZlLgdD-1" source="m8sjC8u_sM0VH_ZlLgdD-13" target="m8sjC8u_sM0VH_ZlLgdD-14" edge="1">
          <mxGeometry relative="1" as="geometry" />
        </mxCell>
        <mxCell id="m8sjC8u_sM0VH_ZlLgdD-11" style="edgeStyle=none;rounded=0;orthogonalLoop=1;jettySize=auto;html=1;exitX=0;exitY=0.25;exitDx=0;exitDy=0;fontSize=10;startSize=11;endSize=10;strokeColor=#FF0080;" parent="m8sjC8u_sM0VH_ZlLgdD-1" source="m8sjC8u_sM0VH_ZlLgdD-13" target="m8sjC8u_sM0VH_ZlLgdD-19" edge="1">
          <mxGeometry relative="1" as="geometry" />
        </mxCell>
        <mxCell id="m8sjC8u_sM0VH_ZlLgdD-12" style="edgeStyle=none;rounded=0;orthogonalLoop=1;jettySize=auto;html=1;exitX=1;exitY=0.5;exitDx=0;exitDy=0;fontSize=10;startArrow=classicThin;startFill=1;startSize=11;endSize=10;strokeColor=#FF0080;" parent="m8sjC8u_sM0VH_ZlLgdD-1" source="m8sjC8u_sM0VH_ZlLgdD-29" target="m8sjC8u_sM0VH_ZlLgdD-21" edge="1">
          <mxGeometry relative="1" as="geometry" />
        </mxCell>
        <mxCell id="m8sjC8u_sM0VH_ZlLgdD-13" value="dircom" style="rounded=1;whiteSpace=wrap;html=1;fontSize=12;align=center;strokeColor=#6c8ebf;fillColor=#dae8fc;" parent="m8sjC8u_sM0VH_ZlLgdD-1" vertex="1">
          <mxGeometry x="5744" y="5655" width="89.02" height="126.5" as="geometry" />
        </mxCell>
        <mxCell id="m8sjC8u_sM0VH_ZlLgdD-14" value="purchased software, back end of j&amp;amp;p website" style="rounded=1;whiteSpace=wrap;html=1;fontSize=12;align=center;strokeColor=#82b366;fillColor=#d5e8d4;" parent="m8sjC8u_sM0VH_ZlLgdD-1" vertex="1">
          <mxGeometry x="5489.996575019639" y="5780" width="136.10683424980363" height="47" as="geometry" />
        </mxCell>
        <mxCell id="m8sjC8u_sM0VH_ZlLgdD-15" value="" style="shape=cylinder3;whiteSpace=wrap;html=1;boundedLbl=1;backgroundOutline=1;size=15;fontSize=10;fillColor=#ffffff;align=left;strokeWidth=3;strokeColor=#ABBAAA;" parent="m8sjC8u_sM0VH_ZlLgdD-1" vertex="1">
          <mxGeometry x="5754.199151610369" y="5827" width="68.62529457973292" height="80" as="geometry" />
        </mxCell>
        <mxCell id="m8sjC8u_sM0VH_ZlLgdD-16" value="" style="shape=cylinder3;whiteSpace=wrap;html=1;boundedLbl=1;backgroundOutline=1;size=15;fontSize=10;strokeColor=#ABBAAA;fillColor=#ffffff;align=left;strokeWidth=3;" parent="m8sjC8u_sM0VH_ZlLgdD-1" vertex="1">
          <mxGeometry x="6916.999332285939" y="5708" width="68.62529457973292" height="80" as="geometry" />
        </mxCell>
        <mxCell id="m8sjC8u_sM0VH_ZlLgdD-17" style="edgeStyle=none;rounded=0;orthogonalLoop=1;jettySize=auto;html=1;fontSize=10;startSize=11;endSize=10;strokeColor=#FF0080;" parent="m8sjC8u_sM0VH_ZlLgdD-1" source="m8sjC8u_sM0VH_ZlLgdD-18" target="m8sjC8u_sM0VH_ZlLgdD-16" edge="1">
          <mxGeometry relative="1" as="geometry" />
        </mxCell>
        <mxCell id="m8sjC8u_sM0VH_ZlLgdD-18" value="ecom" style="rounded=1;whiteSpace=wrap;html=1;fontSize=12;align=center;strokeColor=#6c8ebf;fillColor=#dae8fc;" parent="m8sjC8u_sM0VH_ZlLgdD-1" vertex="1">
          <mxGeometry x="6586" y="5617" width="105.29" height="81" as="geometry" />
        </mxCell>
        <mxCell id="m8sjC8u_sM0VH_ZlLgdD-19" value=".net" style="rounded=1;whiteSpace=wrap;html=1;fontSize=12;align=center;strokeColor=#82b366;fillColor=#d5e8d4;" parent="m8sjC8u_sM0VH_ZlLgdD-1" vertex="1">
          <mxGeometry x="5579.997344854674" y="5595.25" width="68.62529457973292" height="47" as="geometry" />
        </mxCell>
        <mxCell id="m8sjC8u_sM0VH_ZlLgdD-20" style="edgeStyle=none;rounded=0;orthogonalLoop=1;jettySize=auto;html=1;exitX=0.5;exitY=1;exitDx=0;exitDy=0;fontSize=10;startSize=11;endSize=10;strokeColor=#FF0080;" parent="m8sjC8u_sM0VH_ZlLgdD-1" source="m8sjC8u_sM0VH_ZlLgdD-21" target="m8sjC8u_sM0VH_ZlLgdD-22" edge="1">
          <mxGeometry relative="1" as="geometry" />
        </mxCell>
        <mxCell id="m8sjC8u_sM0VH_ZlLgdD-21" value="loyalty service" style="rounded=1;whiteSpace=wrap;html=1;fontSize=12;align=center;strokeColor=#6c8ebf;fillColor=#dae8fc;" parent="m8sjC8u_sM0VH_ZlLgdD-1" vertex="1">
          <mxGeometry x="6300" y="5642.25" width="105" height="152" as="geometry" />
        </mxCell>
        <mxCell id="m8sjC8u_sM0VH_ZlLgdD-22" value="" style="shape=cylinder3;whiteSpace=wrap;html=1;boundedLbl=1;backgroundOutline=1;size=15;fontSize=10;fillColor=#ffffff;align=left;strokeWidth=3;strokeColor=#ABBAAA;" parent="m8sjC8u_sM0VH_ZlLgdD-1" vertex="1">
          <mxGeometry x="6318.184359780047" y="5835" width="68.62529457973292" height="80" as="geometry" />
        </mxCell>
        <mxCell id="m8sjC8u_sM0VH_ZlLgdD-23" style="edgeStyle=none;rounded=0;orthogonalLoop=1;jettySize=auto;html=1;exitX=0.5;exitY=1;exitDx=0;exitDy=0;fontSize=10;startArrow=none;startFill=0;startSize=11;endSize=10;strokeColor=#FF0080;" parent="m8sjC8u_sM0VH_ZlLgdD-1" source="m8sjC8u_sM0VH_ZlLgdD-24" target="m8sjC8u_sM0VH_ZlLgdD-25" edge="1">
          <mxGeometry relative="1" as="geometry" />
        </mxCell>
        <mxCell id="m8sjC8u_sM0VH_ZlLgdD-24" value="lots of duplicate data" style="rounded=1;whiteSpace=wrap;html=1;fontSize=12;align=center;strokeColor=#b85450;fillColor=#f8cecc;" parent="m8sjC8u_sM0VH_ZlLgdD-1" vertex="1">
          <mxGeometry x="5989.997132757267" y="5781.5" width="96.07541241162608" height="47" as="geometry" />
        </mxCell>
        <mxCell id="m8sjC8u_sM0VH_ZlLgdD-25" value="errors in dedupe" style="rounded=1;whiteSpace=wrap;html=1;fontSize=12;align=center;strokeColor=#b85450;fillColor=#f8cecc;" parent="m8sjC8u_sM0VH_ZlLgdD-1" vertex="1">
          <mxGeometry x="5989.997132757267" y="5847.5" width="96.07541241162608" height="47" as="geometry" />
        </mxCell>
        <mxCell id="m8sjC8u_sM0VH_ZlLgdD-26" style="edgeStyle=none;rounded=0;orthogonalLoop=1;jettySize=auto;html=1;exitX=1;exitY=0.5;exitDx=0;exitDy=0;fontSize=10;startArrow=classic;startFill=1;startSize=11;endSize=10;strokeColor=#FF0080;" parent="m8sjC8u_sM0VH_ZlLgdD-1" source="m8sjC8u_sM0VH_ZlLgdD-27" target="m8sjC8u_sM0VH_ZlLgdD-16" edge="1">
          <mxGeometry relative="1" as="geometry" />
        </mxCell>
        <mxCell id="m8sjC8u_sM0VH_ZlLgdD-27" value="redline" style="rounded=1;whiteSpace=wrap;html=1;fontSize=12;align=center;strokeColor=#6c8ebf;fillColor=#dae8fc;" parent="m8sjC8u_sM0VH_ZlLgdD-1" vertex="1">
          <mxGeometry x="6586" y="5835" width="105.29" height="72" as="geometry" />
        </mxCell>
        <mxCell id="m8sjC8u_sM0VH_ZlLgdD-28" style="edgeStyle=none;rounded=0;orthogonalLoop=1;jettySize=auto;html=1;exitX=0.5;exitY=1;exitDx=0;exitDy=0;fontSize=10;startArrow=none;startFill=0;startSize=11;endSize=10;strokeColor=#FF0080;" parent="m8sjC8u_sM0VH_ZlLgdD-1" source="m8sjC8u_sM0VH_ZlLgdD-29" target="m8sjC8u_sM0VH_ZlLgdD-24" edge="1">
          <mxGeometry relative="1" as="geometry" />
        </mxCell>
        <mxCell id="m8sjC8u_sM0VH_ZlLgdD-29" value="&amp;lt;&amp;gt;" style="whiteSpace=wrap;html=1;fontSize=14;align=center;strokeColor=#ABBAAA;fillColor=#ffffff;strokeWidth=3;" parent="m8sjC8u_sM0VH_ZlLgdD-1" vertex="1">
          <mxGeometry x="5990" y="5680.5" width="96.08" height="75.5" as="geometry" />
        </mxCell>
        <mxCell id="m8sjC8u_sM0VH_ZlLgdD-30" value="" style="edgeStyle=none;rounded=0;orthogonalLoop=1;jettySize=auto;html=1;exitX=1;exitY=0.5;exitDx=0;exitDy=0;fontSize=10;startArrow=classicThin;startFill=1;startSize=11;endSize=10;strokeColor=#FF0080;endArrow=classicThin;endFill=1;" parent="m8sjC8u_sM0VH_ZlLgdD-1" source="m8sjC8u_sM0VH_ZlLgdD-13" target="m8sjC8u_sM0VH_ZlLgdD-29" edge="1">
          <mxGeometry relative="1" as="geometry">
            <mxPoint x="5785" y="5738.25" as="sourcePoint" />
            <mxPoint x="6361" y="5740.770286396182" as="targetPoint" />
          </mxGeometry>
        </mxCell>
        <mxCell id="6eJcTGkBkrdb9ygnWKVp-0" value="in ecom" style="swimlane;html=0;startSize=29;childLayout=stackLayout;horizontalStack=0;stackBorder=8;stackSpacing=8;resizeLast=0;resizeParent=1;swimlaneLine=0;swimlaneFillColor=#DCE0CE;dropTarget=1;collapsible=0;container=1;verticalAlign=middle;fontSize=10;fontStyle=1;labelPosition=center;verticalLabelPosition=middle;align=center;fillColor=#f5f5f5;rounded=1;arcSize=0;fontColor=#333333;autosize=0;perimeterSpacing=1;horizontal=1;allowArrows=0;strokeColor=#666666;fontFamily=Merriweather sans;fontSource=https%3A%2F%2Ffonts.googleapis.com%2Fcss%3Ffamily%3DMerriweather%2Bsans;" parent="m8sjC8u_sM0VH_ZlLgdD-1" vertex="1">
          <mxGeometry x="6691.29" y="6089.000000000001" width="234" height="238" as="geometry" />
        </mxCell>
        <mxCell id="6eJcTGkBkrdb9ygnWKVp-1" value="loyalty requests" style="rounded=1;whiteSpace=wrap;html=1;fontSize=12;startSize=0;align=left;strokeColor=none;shadow=0;direction=south;fillColor=#D6B48D;spacing=4;autosize=1;" parent="6eJcTGkBkrdb9ygnWKVp-0" vertex="1">
          <mxGeometry x="8" y="37" width="218" height="30" as="geometry" />
        </mxCell>
        <mxCell id="6eJcTGkBkrdb9ygnWKVp-6" value="&lt;div&gt;NOT always registering customer id&lt;/div&gt;" style="rounded=1;whiteSpace=wrap;html=1;fontSize=12;startSize=0;align=left;strokeColor=none;shadow=0;direction=south;fillColor=#D6B48D;spacing=4;autosize=1;" parent="6eJcTGkBkrdb9ygnWKVp-0" vertex="1">
          <mxGeometry x="8" y="75" width="218" height="30" as="geometry" />
        </mxCell>
        <mxCell id="6eJcTGkBkrdb9ygnWKVp-5" value="retry logic" style="rounded=1;whiteSpace=wrap;html=1;fontSize=12;startSize=0;align=left;strokeColor=none;shadow=0;direction=south;fillColor=#D6B48D;spacing=4;autosize=1;" parent="6eJcTGkBkrdb9ygnWKVp-0" vertex="1">
          <mxGeometry x="8" y="113" width="218" height="30" as="geometry" />
        </mxCell>
        <mxCell id="6eJcTGkBkrdb9ygnWKVp-3" value="in loyalty api" style="swimlane;html=0;startSize=29;childLayout=stackLayout;horizontalStack=0;stackBorder=8;stackSpacing=8;resizeLast=0;resizeParent=1;swimlaneLine=0;swimlaneFillColor=#DCE0CE;dropTarget=1;collapsible=0;container=1;verticalAlign=middle;fontSize=10;fontStyle=1;labelPosition=center;verticalLabelPosition=middle;align=center;fillColor=#f5f5f5;rounded=1;arcSize=0;fontColor=#333333;autosize=0;perimeterSpacing=1;horizontal=1;allowArrows=0;strokeColor=#666666;fontFamily=Merriweather sans;fontSource=https%3A%2F%2Ffonts.googleapis.com%2Fcss%3Ffamily%3DMerriweather%2Bsans;" parent="m8sjC8u_sM0VH_ZlLgdD-1" vertex="1">
          <mxGeometry x="6436.81" y="6090.000000000001" width="234" height="238" as="geometry" />
        </mxCell>
        <mxCell id="6eJcTGkBkrdb9ygnWKVp-4" value="loyalty requests" style="rounded=1;whiteSpace=wrap;html=1;fontSize=12;startSize=0;align=left;strokeColor=none;shadow=0;direction=south;fillColor=#D6B48D;spacing=4;autosize=1;" parent="6eJcTGkBkrdb9ygnWKVp-3" vertex="1">
          <mxGeometry x="8" y="37" width="218" height="30" as="geometry" />
        </mxCell>
        <mxCell id="NlgBDnJcf5LEIWoIe6Md-2" value="Plan" style="swimlane;html=0;startSize=38;childLayout=stackLayout;horizontalStack=0;stackBorder=8;stackSpacing=8;resizeLast=0;resizeParent=1;swimlaneLine=0;swimlaneFillColor=#D1D1D1;dropTarget=1;collapsible=0;container=1;verticalAlign=middle;fontSize=17;fontStyle=1;labelPosition=center;verticalLabelPosition=middle;align=center;rounded=1;arcSize=7;autosize=1;perimeterSpacing=1;horizontal=1;allowArrows=0;fontFamily=Merriweather sans;fontSource=https%3A%2F%2Ffonts.googleapis.com%2Fcss%3Ffamily%3DMerriweather%2Bsans;fontColor=#454545;labelBorderColor=none;strokeColor=#616161;fillColor=#BFBFBF;resizeHeight=1;" parent="m8sjC8u_sM0VH_ZlLgdD-1" vertex="1">
          <mxGeometry x="6070" y="6089" width="321.38" height="286" as="geometry" />
        </mxCell>
        <mxCell id="NlgBDnJcf5LEIWoIe6Md-5" value="look at tickets" style="rounded=1;whiteSpace=wrap;html=1;fontSize=12;startSize=0;align=left;labelPosition=center;verticalLabelPosition=middle;verticalAlign=top;shadow=0;fontFamily=Merriweather sans;fontStyle=0;strokeColor=#666666;fillColor=#f5f5f5;arcSize=9;spacingTop=0;spacingLeft=0;fontSource=https%3A%2F%2Ffonts.googleapis.com%2Fcss%3Ffamily%3DMerriweather%2Bsans;fontColor=#333333;spacing=8;autosize=1;" parent="NlgBDnJcf5LEIWoIe6Md-2" vertex="1">
          <mxGeometry x="8" y="46" width="305.38" height="40" as="geometry" />
        </mxCell>
        <mxCell id="NlgBDnJcf5LEIWoIe6Md-3" value="smaller tickets?&lt;span style=&quot;white-space: pre&quot;&gt; &lt;/span&gt;" style="rounded=1;whiteSpace=wrap;html=1;fontSize=12;startSize=0;align=left;labelPosition=center;verticalLabelPosition=middle;verticalAlign=top;shadow=0;fontFamily=Merriweather sans;fontStyle=0;strokeColor=#666666;fillColor=#f5f5f5;arcSize=9;spacingTop=0;spacingLeft=0;fontSource=https%3A%2F%2Ffonts.googleapis.com%2Fcss%3Ffamily%3DMerriweather%2Bsans;fontColor=#333333;spacing=8;autosize=1;" parent="NlgBDnJcf5LEIWoIe6Md-2" vertex="1">
          <mxGeometry x="8" y="94" width="305.38" height="40" as="geometry" />
        </mxCell>
        <mxCell id="NlgBDnJcf5LEIWoIe6Md-4" value="refine 5 point tickets" style="rounded=1;whiteSpace=wrap;html=1;fontSize=12;startSize=0;align=left;labelPosition=center;verticalLabelPosition=middle;verticalAlign=top;shadow=0;fontFamily=Merriweather sans;fontStyle=0;strokeColor=#666666;fillColor=#f5f5f5;arcSize=9;spacingTop=0;spacingLeft=0;fontSource=https%3A%2F%2Ffonts.googleapis.com%2Fcss%3Ffamily%3DMerriweather%2Bsans;fontColor=#333333;spacing=8;autosize=1;" parent="NlgBDnJcf5LEIWoIe6Md-2" vertex="1">
          <mxGeometry x="8" y="142" width="305.38" height="40" as="geometry" />
        </mxCell>
        <mxCell id="NlgBDnJcf5LEIWoIe6Md-6" value="d" style="rounded=1;whiteSpace=wrap;html=1;fontSize=12;startSize=0;align=left;labelPosition=center;verticalLabelPosition=middle;verticalAlign=top;shadow=0;fontFamily=Merriweather sans;fontStyle=0;strokeColor=#666666;fillColor=#f5f5f5;arcSize=9;spacingTop=0;spacingLeft=0;fontSource=https%3A%2F%2Ffonts.googleapis.com%2Fcss%3Ffamily%3DMerriweather%2Bsans;fontColor=#333333;spacing=8;autosize=1;" parent="NlgBDnJcf5LEIWoIe6Md-2" vertex="1">
          <mxGeometry x="8" y="190" width="305.38" height="40" as="geometry" />
        </mxCell>
        <mxCell id="NlgBDnJcf5LEIWoIe6Md-7" value="d" style="rounded=1;whiteSpace=wrap;html=1;fontSize=12;startSize=0;align=left;labelPosition=center;verticalLabelPosition=middle;verticalAlign=top;shadow=0;fontFamily=Merriweather sans;fontStyle=0;strokeColor=#666666;fillColor=#f5f5f5;arcSize=9;spacingTop=0;spacingLeft=0;fontSource=https%3A%2F%2Ffonts.googleapis.com%2Fcss%3Ffamily%3DMerriweather%2Bsans;fontColor=#333333;spacing=8;autosize=1;" parent="NlgBDnJcf5LEIWoIe6Md-2" vertex="1">
          <mxGeometry x="8" y="238" width="305.38" height="40" as="geometry" />
        </mxCell>
      </root>
    </mxGraphModel>
  </diagram>
  <diagram name="people" id="hPMi7sUBD_obv11KwXAD">
    <mxGraphModel dx="1220" dy="-1750" grid="0" gridSize="10" guides="1" tooltips="1" connect="1" arrows="1" fold="1" page="0" pageScale="1" pageWidth="850" pageHeight="1100" background="#F0F0F0" math="0" shadow="0">
      <root>
        <mxCell id="JkQ6hlCqb3lIrz7IqVgE-0" />
        <mxCell id="JkQ6hlCqb3lIrz7IqVgE-1" parent="JkQ6hlCqb3lIrz7IqVgE-0" />
        <mxCell id="3rOEkGPOduq2QrIHbDct-0" value="Isengard" style="rounded=1;whiteSpace=wrap;html=1;fontStyle=0;arcSize=5;align=left;verticalAlign=top;spacingLeft=8;spacingTop=8;fontSize=27;fontColor=#333333;strokeColor=#666666;fillColor=#E6E6E6;spacingBottom=16;spacing=8;container=1;dropTarget=1;recursiveResize=0;collapsible=0;fontFamily=Merriweather sans;fontSource=https%3A%2F%2Ffonts.googleapis.com%2Fcss%3Ffamily%3DMerriweather%2Bsans;" parent="JkQ6hlCqb3lIrz7IqVgE-1" vertex="1">
          <mxGeometry x="863" y="2966" width="1014" height="940" as="geometry" />
        </mxCell>
        <mxCell id="3rOEkGPOduq2QrIHbDct-1" value="brian" style="rounded=1;whiteSpace=wrap;html=1;fontStyle=0;arcSize=5;align=left;verticalAlign=top;spacingLeft=8;spacingTop=8;fontSize=12;fontColor=#333333;strokeColor=#666666;spacingBottom=16;spacing=8;container=1;dropTarget=1;recursiveResize=0;collapsible=0;fontFamily=Merriweather sans;fontSource=https%3A%2F%2Ffonts.googleapis.com%2Fcss%3Ffamily%3DMerriweather%2Bsans;fillColor=#F7F7F7;" parent="3rOEkGPOduq2QrIHbDct-0" vertex="1">
          <mxGeometry x="163" y="510" width="159.8460264900662" height="86.48760330578513" as="geometry" />
        </mxCell>
        <mxCell id="3rOEkGPOduq2QrIHbDct-3" value="Maliha" style="rounded=1;whiteSpace=wrap;html=1;fontStyle=0;arcSize=5;align=left;verticalAlign=top;spacingLeft=8;spacingTop=8;fontSize=12;fontColor=#333333;strokeColor=#666666;spacingBottom=16;spacing=8;container=1;dropTarget=1;recursiveResize=0;collapsible=0;fontFamily=Merriweather sans;fontSource=https%3A%2F%2Ffonts.googleapis.com%2Fcss%3Ffamily%3DMerriweather%2Bsans;fillColor=#F7F7F7;" parent="3rOEkGPOduq2QrIHbDct-0" vertex="1">
          <mxGeometry x="828" y="375" width="159.8460264900662" height="86.48760330578513" as="geometry" />
        </mxCell>
        <mxCell id="3rOEkGPOduq2QrIHbDct-4" value="Rick Rhody" style="rounded=1;whiteSpace=wrap;html=1;fontStyle=0;arcSize=5;align=left;verticalAlign=top;spacingLeft=8;spacingTop=8;fontSize=12;fontColor=#333333;strokeColor=#666666;spacingBottom=16;spacing=8;container=1;dropTarget=1;recursiveResize=0;collapsible=0;fontFamily=Merriweather sans;fontSource=https%3A%2F%2Ffonts.googleapis.com%2Fcss%3Ffamily%3DMerriweather%2Bsans;fillColor=#F7F7F7;" parent="3rOEkGPOduq2QrIHbDct-0" vertex="1">
          <mxGeometry x="715" y="139" width="159.8460264900662" height="86.48760330578513" as="geometry" />
        </mxCell>
        <mxCell id="3rOEkGPOduq2QrIHbDct-5" value="Omkar" style="rounded=1;whiteSpace=wrap;html=1;fontStyle=0;arcSize=5;align=left;verticalAlign=top;spacingLeft=8;spacingTop=8;fontSize=12;fontColor=#333333;strokeColor=#666666;spacingBottom=16;spacing=8;container=1;dropTarget=1;recursiveResize=0;collapsible=0;fontFamily=Merriweather sans;fontSource=https%3A%2F%2Ffonts.googleapis.com%2Fcss%3Ffamily%3DMerriweather%2Bsans;fillColor=#F7F7F7;" parent="3rOEkGPOduq2QrIHbDct-0" vertex="1">
          <mxGeometry x="427" y="20" width="159.8460264900662" height="86.48760330578513" as="geometry" />
        </mxCell>
        <mxCell id="3rOEkGPOduq2QrIHbDct-6" value="Alan Strait" style="rounded=1;whiteSpace=wrap;html=1;fontStyle=0;arcSize=5;align=left;verticalAlign=top;spacingLeft=8;spacingTop=8;fontSize=12;fontColor=#333333;strokeColor=#666666;spacingBottom=16;spacing=8;container=1;dropTarget=1;recursiveResize=0;collapsible=0;fontFamily=Merriweather sans;fontSource=https%3A%2F%2Ffonts.googleapis.com%2Fcss%3Ffamily%3DMerriweather%2Bsans;fillColor=#F7F7F7;" parent="3rOEkGPOduq2QrIHbDct-0" vertex="1">
          <mxGeometry x="140" y="139" width="159.8460264900662" height="86.48760330578513" as="geometry" />
        </mxCell>
        <mxCell id="3rOEkGPOduq2QrIHbDct-8" value="Taj Huque" style="rounded=1;whiteSpace=wrap;html=1;fontStyle=0;arcSize=5;align=left;verticalAlign=top;spacingLeft=8;spacingTop=8;fontSize=12;fontColor=#333333;strokeColor=#666666;spacingBottom=16;spacing=8;container=1;dropTarget=1;recursiveResize=0;collapsible=0;fontFamily=Merriweather sans;fontSource=https%3A%2F%2Ffonts.googleapis.com%2Fcss%3Ffamily%3DMerriweather%2Bsans;fillColor=#F7F7F7;" parent="3rOEkGPOduq2QrIHbDct-0" vertex="1">
          <mxGeometry x="36" y="310" width="159.8460264900662" height="86.48760330578513" as="geometry" />
        </mxCell>
        <mxCell id="GEeaOQPkSm5RnxOouZLp-0" value="Steve" style="rounded=1;whiteSpace=wrap;html=1;fontStyle=0;arcSize=5;align=left;verticalAlign=top;spacingLeft=8;spacingTop=8;fontSize=12;fontColor=#333333;strokeColor=#666666;spacingBottom=16;spacing=8;container=1;dropTarget=1;recursiveResize=0;collapsible=0;fontFamily=Merriweather sans;fontSource=https%3A%2F%2Ffonts.googleapis.com%2Fcss%3Ffamily%3DMerriweather%2Bsans;fillColor=#F7F7F7;" vertex="1" parent="3rOEkGPOduq2QrIHbDct-0">
          <mxGeometry x="389" y="638" width="159.8460264900662" height="86.48760330578513" as="geometry" />
        </mxCell>
        <mxCell id="GEeaOQPkSm5RnxOouZLp-1" value="Cedric" style="rounded=1;whiteSpace=wrap;html=1;fontStyle=0;arcSize=5;align=left;verticalAlign=top;spacingLeft=8;spacingTop=8;fontSize=12;fontColor=#333333;strokeColor=#666666;spacingBottom=16;spacing=8;container=1;dropTarget=1;recursiveResize=0;collapsible=0;fontFamily=Merriweather sans;fontSource=https%3A%2F%2Ffonts.googleapis.com%2Fcss%3Ffamily%3DMerriweather%2Bsans;fillColor=#F7F7F7;" vertex="1" parent="3rOEkGPOduq2QrIHbDct-0">
          <mxGeometry x="679" y="596.49" width="159.8460264900662" height="86.48760330578513" as="geometry" />
        </mxCell>
        <mxCell id="Dql3QuTtPr80_G-ny4hw-0" value="&lt;div&gt;Robby Stokoe&lt;/div&gt;&lt;div&gt;&lt;br&gt;&lt;/div&gt;" style="rounded=1;whiteSpace=wrap;html=1;fontStyle=0;arcSize=5;align=left;verticalAlign=top;spacingLeft=8;spacingTop=8;fontSize=12;fontColor=#333333;strokeColor=#666666;spacingBottom=16;spacing=8;container=1;dropTarget=1;recursiveResize=0;collapsible=0;fontFamily=Merriweather sans;fontSource=https%3A%2F%2Ffonts.googleapis.com%2Fcss%3Ffamily%3DMerriweather%2Bsans;fillColor=#F7F7F7;" vertex="1" parent="JkQ6hlCqb3lIrz7IqVgE-1">
          <mxGeometry x="2715" y="3813" width="159.8460264900662" height="86.48760330578513" as="geometry" />
        </mxCell>
        <mxCell id="Dql3QuTtPr80_G-ny4hw-1" value="&lt;div&gt;Millz&lt;/div&gt;&lt;div&gt;&lt;br&gt;&lt;/div&gt;" style="rounded=1;whiteSpace=wrap;html=1;fontStyle=0;arcSize=5;align=left;verticalAlign=top;spacingLeft=8;spacingTop=8;fontSize=12;fontColor=#333333;strokeColor=#666666;spacingBottom=16;spacing=8;container=1;dropTarget=1;recursiveResize=0;collapsible=0;fontFamily=Merriweather sans;fontSource=https%3A%2F%2Ffonts.googleapis.com%2Fcss%3Ffamily%3DMerriweather%2Bsans;fillColor=#F7F7F7;" vertex="1" parent="JkQ6hlCqb3lIrz7IqVgE-1">
          <mxGeometry x="2973" y="3828" width="159.8460264900662" height="86.48760330578513" as="geometry" />
        </mxCell>
        <mxCell id="Dql3QuTtPr80_G-ny4hw-2" value="&lt;div&gt;Cedric&lt;/div&gt;" style="rounded=1;whiteSpace=wrap;html=1;fontStyle=0;arcSize=5;align=left;verticalAlign=top;spacingLeft=8;spacingTop=8;fontSize=12;fontColor=#333333;strokeColor=#666666;spacingBottom=16;spacing=8;container=1;dropTarget=1;recursiveResize=0;collapsible=0;fontFamily=Merriweather sans;fontSource=https%3A%2F%2Ffonts.googleapis.com%2Fcss%3Ffamily%3DMerriweather%2Bsans;fillColor=#F7F7F7;" vertex="1" parent="JkQ6hlCqb3lIrz7IqVgE-1">
          <mxGeometry x="2458" y="3889" width="159.8460264900662" height="86.48760330578513" as="geometry" />
        </mxCell>
      </root>
    </mxGraphModel>
  </diagram>
  <diagram id="iCaC9ZbW4q--r4heh1r-" name="one on ones with zac">
    <mxGraphModel dx="-286" dy="-3665" grid="1" gridSize="10" guides="1" tooltips="1" connect="1" arrows="1" fold="1" page="1" pageScale="1" pageWidth="850" pageHeight="1100" math="0" shadow="0">
      <root>
        <mxCell id="WpaOBkc-NxjcoGgRRihd-0" />
        <mxCell id="WpaOBkc-NxjcoGgRRihd-1" parent="WpaOBkc-NxjcoGgRRihd-0" />
        <mxCell id="MlGQDRYeyNKxrfyoBVY8-0" value="&lt;h2&gt;CHECKING IN WITH EXPECTATIONS:&lt;/h2&gt; &#xa;  &lt;ul&gt; &#xa;   &lt;li&gt;What am I doing that is working and why? Do you want more of this and how?&lt;/li&gt; &#xa;   &lt;li&gt;What am I doing that needs to change? Why and how?&lt;/li&gt; &#xa;   &lt;li&gt;What am I doing that I should stop doing?&lt;/li&gt; &#xa;  &lt;/ul&gt; &#xa;  &lt;h2&gt;GROWTH: PERSONAL DEVELOPMENT, CAREER PROGRESSION:&lt;/h2&gt; &#xa;  &lt;ul&gt; &#xa;   &lt;li&gt;What future roles do you see as suitable for my skill-set and career progression?&lt;/li&gt; &#xa;   &lt;li&gt;What skills should I develop to do my job better?&lt;/li&gt; &#xa;   &lt;li&gt;What skills should I develop to support my career progression?&lt;/li&gt; &#xa;   &lt;li&gt;What responsibilities can I take over as part of career development or building my network / experience?&lt;/li&gt; &#xa;   &lt;li&gt;Can you please give me X responsibility (because I think I can do&#xa; a good job at it or it will develop my experience / network)? Some &#xa;bosses prefer their employees to be proactive. If you want &#xa;responsibilities ask for them)&lt;/li&gt; &#xa;   &lt;li&gt;Can you please support me in learning about X? (via coaching or sponsoring training - see&amp;nbsp;&lt;a href=&quot;http://managerfoundation.com/blog/9-ways-to-get-your-company-to-pay-for-your-training&quot; target=&quot;_blank&quot;&gt;&quot;9 Ways to Get Your Company to Pay for Your Training.&quot;&lt;/a&gt;&amp;nbsp;If you want training, ask for it specifically and justify why it supports your bosses goals.&lt;/li&gt; &#xa;   &lt;li&gt;What do you think my blind spots are that are holding me back?&lt;/li&gt; &#xa;   &lt;li&gt;What do you think are my strengths that I should focus on?&lt;/li&gt; &#xa;   &lt;li&gt;Are there any people I should develop a better network with and how? Would you introduce us or put us onto a project together?&lt;/li&gt; &#xa;  &lt;/ul&gt; &#xa;  &lt;h2&gt;ALIGNING PRIORITIES:&lt;/h2&gt; &#xa;  &lt;ul&gt; &#xa;   &lt;li&gt;What is highest priority to you?&lt;/li&gt; &#xa;   &lt;li&gt;What are lower priority items and what&#39;s the possibility of these being cancelled / postponed indefinitely?&lt;/li&gt; &#xa;   &lt;li&gt;Is there anything I need to know about you, the team or the business?&lt;/li&gt; &#xa;  &lt;/ul&gt; &#xa;  &lt;h2&gt;RESOURCES:&lt;/h2&gt; &#xa;  &lt;ul&gt; &#xa;   &lt;li&gt;Do you need resources like extra time, assistance, tools, &#xa;training? You won&#39;t get unless you ask (but remember to justify it, make&#xa; it worthwhile to your boss because your boss won&#39;t like being asked if &#xa;your boss does not believe it&#39;s necessary)&lt;/li&gt; &#xa;  &lt;/ul&gt; &#xa;  &lt;h2&gt;BEING HELPFUL / BEING AWESOME:&lt;/h2&gt; &#xa;  &lt;ul&gt; &#xa;   &lt;li&gt;What can I help with?&lt;/li&gt; &#xa;   &lt;li&gt;What are you struggling with?&lt;/li&gt; &#xa;   &lt;li&gt;What are you trying to achieve?&lt;/li&gt; &#xa;   &lt;li&gt;How can I support you with your own boss?&lt;/li&gt; &#xa;  &lt;/ul&gt; &#xa;  &lt;h2&gt;NEXT STEPS:&lt;/h2&gt; &#xa;  &lt;p&gt;So those are the best questions to ask in One on Ones with your &#xa;Boss which will improve your work life. Self Leadership is about taking &#xa;control of your life to achieve what you want regardless of whether you &#xa;have a good boss or a bad boss.&amp;nbsp;&lt;a href=&quot;http://managerfoundation.com/one-on-one-meetings-with-your-boss&quot; target=&quot;_blank&quot;&gt;And managing your boss starts with knowing what to say in One on One Meetings with your boss.&amp;nbsp;&lt;/a&gt;&amp;nbsp;&lt;/p&gt;" style="text;whiteSpace=wrap;html=1;" parent="WpaOBkc-NxjcoGgRRihd-1" vertex="1">
          <mxGeometry x="1720" y="4400.003333333334" width="540" height="1443" as="geometry" />
        </mxCell>
        <mxCell id="MlGQDRYeyNKxrfyoBVY8-1" value="&amp;lt;diagram/&amp;gt;" style="text;whiteSpace=wrap;html=1;" parent="WpaOBkc-NxjcoGgRRihd-1" vertex="1">
          <mxGeometry x="2220" y="5900" width="90" height="30" as="geometry" />
        </mxCell>
      </root>
    </mxGraphModel>
  </diagram>
  <diagram id="HE1VfRM75uAiaPYxfimM" name="mob coding">
    <mxGraphModel dx="4040" dy="2100" grid="1" gridSize="10" guides="1" tooltips="1" connect="1" arrows="1" fold="1" page="0" pageScale="1" pageWidth="850" pageHeight="1100" math="0" shadow="0">
      <root>
        <mxCell id="jIR6ZfUCpSBKofC2tpVq-0" />
        <mxCell id="jIR6ZfUCpSBKofC2tpVq-1" parent="jIR6ZfUCpSBKofC2tpVq-0" />
        <mxCell id="jIR6ZfUCpSBKofC2tpVq-2" value="mob coding" style="swimlane;html=1;startSize=28;horizontal=1;childLayout=stackLayout;stackBorder=20;stackSpacing=20;resizeLast=0;resizeParent=1;fillColor=#f5f5f5;align=center;verticalAlign=middle;swimlaneLine=0;connectable=0;allowArrows=0;metaEdit=0;fontColor=#333333;strokeColor=#666666;swimlaneFillColor=#DCE0CE;resizeWidth=1;resizeHeight=1;autosize=1;collapsible=0;rounded=1;fontFamily=Merriweather sans;fontSource=https%3A%2F%2Ffonts.googleapis.com%2Fcss%3Ffamily%3DMerriweather%2Bsans;arcSize=11;" parent="jIR6ZfUCpSBKofC2tpVq-1" vertex="1">
          <mxGeometry x="180" y="180" width="672" height="140" as="geometry" />
        </mxCell>
        <mxCell id="jIR6ZfUCpSBKofC2tpVq-3" value="start, introduce the idea" style="rounded=1;whiteSpace=wrap;html=1;fontSize=12;startSize=0;align=left;shadow=0;fontFamily=Merriweather sans;fontStyle=0;verticalAlign=top;strokeColor=#666666;fillColor=#f5f5f5;spacingTop=1;spacingLeft=8;arcSize=9;fontSource=https%3A%2F%2Ffonts.googleapis.com%2Fcss%3Ffamily%3DMerriweather%2Bsans;fontColor=#333333;" parent="jIR6ZfUCpSBKofC2tpVq-2" vertex="1">
          <mxGeometry x="20" y="48" width="100" height="72" as="geometry" />
        </mxCell>
        <mxCell id="jIR6ZfUCpSBKofC2tpVq-4" value="introduce exercism" style="rounded=1;whiteSpace=wrap;html=1;fontSize=12;startSize=0;align=left;labelPosition=center;verticalLabelPosition=middle;verticalAlign=top;shadow=0;fontFamily=Merriweather sans;fontStyle=0;strokeColor=#666666;fillColor=#f5f5f5;arcSize=9;spacingTop=1;spacingLeft=8;fontSource=https%3A%2F%2Ffonts.googleapis.com%2Fcss%3Ffamily%3DMerriweather%2Bsans;fontColor=#333333;" parent="jIR6ZfUCpSBKofC2tpVq-2" vertex="1">
          <mxGeometry x="140" y="48" width="96" height="72" as="geometry" />
        </mxCell>
        <mxCell id="jIR6ZfUCpSBKofC2tpVq-7" value="wrap up" style="rounded=1;whiteSpace=wrap;html=1;fontSize=12;startSize=0;align=left;shadow=0;fontFamily=Merriweather sans;fontStyle=0;verticalAlign=top;strokeColor=#666666;fillColor=#f5f5f5;spacingTop=1;spacingLeft=8;arcSize=9;fontSource=https%3A%2F%2Ffonts.googleapis.com%2Fcss%3Ffamily%3DMerriweather%2Bsans;fontColor=#333333;" parent="jIR6ZfUCpSBKofC2tpVq-2" vertex="1">
          <mxGeometry x="256" y="48" width="48" height="72" as="geometry" />
        </mxCell>
        <mxCell id="jIR6ZfUCpSBKofC2tpVq-13" value="pick a route" style="rounded=1;whiteSpace=wrap;html=1;fontSize=12;startSize=0;align=left;labelPosition=center;verticalLabelPosition=middle;verticalAlign=top;shadow=0;fontFamily=Merriweather sans;fontStyle=0;strokeColor=#666666;fillColor=#f5f5f5;arcSize=9;spacingTop=1;spacingLeft=8;fontSource=https%3A%2F%2Ffonts.googleapis.com%2Fcss%3Ffamily%3DMerriweather%2Bsans;fontColor=#333333;" parent="jIR6ZfUCpSBKofC2tpVq-2" vertex="1">
          <mxGeometry x="324" y="48" width="96" height="72" as="geometry" />
        </mxCell>
        <mxCell id="jIR6ZfUCpSBKofC2tpVq-5" value="make a list of questions" style="rounded=1;whiteSpace=wrap;html=1;fontSize=12;startSize=0;align=left;labelPosition=center;verticalLabelPosition=middle;verticalAlign=top;shadow=0;fontFamily=Merriweather sans;fontStyle=0;strokeColor=#666666;fillColor=#f5f5f5;arcSize=9;spacingTop=1;spacingLeft=8;fontSource=https%3A%2F%2Ffonts.googleapis.com%2Fcss%3Ffamily%3DMerriweather%2Bsans;fontColor=#333333;" parent="jIR6ZfUCpSBKofC2tpVq-2" vertex="1">
          <mxGeometry x="440" y="48" width="96" height="72" as="geometry" />
        </mxCell>
        <mxCell id="jIR6ZfUCpSBKofC2tpVq-8" value="roles" style="swimlane;html=1;startSize=20;horizontal=1;childLayout=stackLayout;stackBorder=20;stackSpacing=20;resizeLast=0;resizeParent=1;fillColor=#f5f5f5;align=center;verticalAlign=middle;swimlaneLine=0;connectable=0;allowArrows=0;metaEdit=0;fontColor=#333333;strokeColor=#666666;swimlaneFillColor=#DCE0CE;resizeWidth=1;resizeHeight=1;autosize=1;collapsible=0;rounded=1;fontFamily=Merriweather sans;fontSource=https%3A%2F%2Ffonts.googleapis.com%2Fcss%3Ffamily%3DMerriweather%2Bsans;arcSize=10;" parent="jIR6ZfUCpSBKofC2tpVq-1" vertex="1">
          <mxGeometry x="800" y="520" width="478" height="160" as="geometry" />
        </mxCell>
        <mxCell id="jIR6ZfUCpSBKofC2tpVq-9" value="driver" style="rounded=1;whiteSpace=wrap;html=1;fontSize=12;startSize=0;align=left;shadow=0;fontFamily=Merriweather sans;fontStyle=0;verticalAlign=top;strokeColor=#666666;fillColor=#f5f5f5;spacingTop=1;spacingLeft=8;arcSize=9;fontSource=https%3A%2F%2Ffonts.googleapis.com%2Fcss%3Ffamily%3DMerriweather%2Bsans;fontColor=#333333;" parent="jIR6ZfUCpSBKofC2tpVq-8" vertex="1">
          <mxGeometry x="20" y="40" width="90" height="100" as="geometry" />
        </mxCell>
        <mxCell id="jIR6ZfUCpSBKofC2tpVq-10" value="navigator" style="rounded=1;whiteSpace=wrap;html=1;fontSize=12;startSize=0;align=left;labelPosition=center;verticalLabelPosition=middle;verticalAlign=top;shadow=0;fontFamily=Merriweather sans;fontStyle=0;strokeColor=#666666;fillColor=#f5f5f5;arcSize=9;spacingTop=1;spacingLeft=8;fontSource=https%3A%2F%2Ffonts.googleapis.com%2Fcss%3Ffamily%3DMerriweather%2Bsans;fontColor=#333333;" parent="jIR6ZfUCpSBKofC2tpVq-8" vertex="1">
          <mxGeometry x="130" y="40" width="96" height="100" as="geometry" />
        </mxCell>
        <mxCell id="jIR6ZfUCpSBKofC2tpVq-11" value="optionally rotating &lt;font style=&quot;font-size: 14px&quot;&gt;navigator&lt;/font&gt;" style="rounded=1;whiteSpace=wrap;html=1;fontSize=12;startSize=0;align=left;labelPosition=center;verticalLabelPosition=middle;verticalAlign=top;shadow=0;fontFamily=Merriweather sans;fontStyle=0;strokeColor=#666666;fillColor=#f5f5f5;arcSize=9;spacingTop=1;spacingLeft=8;fontSource=https%3A%2F%2Ffonts.googleapis.com%2Fcss%3Ffamily%3DMerriweather%2Bsans;fontColor=#333333;" parent="jIR6ZfUCpSBKofC2tpVq-8" vertex="1">
          <mxGeometry x="246" y="40" width="96" height="100" as="geometry" />
        </mxCell>
        <mxCell id="jIR6ZfUCpSBKofC2tpVq-12" value="&lt;font style=&quot;font-size: 14px&quot;&gt;mob&lt;/font&gt;, participates in discussion&amp;nbsp; of approach" style="rounded=1;whiteSpace=wrap;html=1;fontSize=12;startSize=0;align=left;labelPosition=center;verticalLabelPosition=middle;verticalAlign=top;shadow=0;fontFamily=Merriweather sans;fontStyle=0;strokeColor=#666666;fillColor=#f5f5f5;arcSize=9;spacingTop=1;spacingLeft=8;fontSource=https%3A%2F%2Ffonts.googleapis.com%2Fcss%3Ffamily%3DMerriweather%2Bsans;fontColor=#333333;" parent="jIR6ZfUCpSBKofC2tpVq-8" vertex="1">
          <mxGeometry x="362" y="40" width="96" height="100" as="geometry" />
        </mxCell>
        <mxCell id="jIR6ZfUCpSBKofC2tpVq-6" value="45 minutes with 5 minute rounds would be about 9 rounds" style="rounded=1;whiteSpace=wrap;html=1;fontSize=12;startSize=0;align=left;shadow=0;fontFamily=Merriweather sans;fontStyle=0;verticalAlign=top;strokeColor=#666666;fillColor=#f5f5f5;spacingTop=1;spacingLeft=8;arcSize=9;fontSource=https%3A%2F%2Ffonts.googleapis.com%2Fcss%3Ffamily%3DMerriweather%2Bsans;fontColor=#333333;" parent="jIR6ZfUCpSBKofC2tpVq-1" vertex="1">
          <mxGeometry x="1020" y="200" width="180" height="72" as="geometry" />
        </mxCell>
        <mxCell id="jIR6ZfUCpSBKofC2tpVq-15" value="mob coding" style="swimlane;html=1;startSize=28;horizontal=1;childLayout=stackLayout;stackBorder=20;stackSpacing=20;resizeLast=0;resizeParent=1;fillColor=#f5f5f5;align=center;verticalAlign=middle;swimlaneLine=0;connectable=0;allowArrows=0;metaEdit=0;fontColor=#333333;strokeColor=#666666;swimlaneFillColor=#DCE0CE;resizeWidth=1;resizeHeight=1;autosize=1;collapsible=0;rounded=1;fontFamily=Merriweather sans;fontSource=https%3A%2F%2Ffonts.googleapis.com%2Fcss%3Ffamily%3DMerriweather%2Bsans;arcSize=11;" parent="jIR6ZfUCpSBKofC2tpVq-1" vertex="1">
          <mxGeometry x="84" y="420" width="716" height="260" as="geometry" />
        </mxCell>
        <mxCell id="jIR6ZfUCpSBKofC2tpVq-16" value="mob coding goal is to have a little fun learning about elixir and communicating with each other about problem solving" style="rounded=1;whiteSpace=wrap;html=1;fontSize=12;startSize=0;align=left;shadow=0;fontFamily=Merriweather sans;fontStyle=0;verticalAlign=top;strokeColor=#666666;fillColor=#f5f5f5;spacingTop=1;spacingLeft=8;arcSize=9;fontSource=https%3A%2F%2Ffonts.googleapis.com%2Fcss%3Ffamily%3DMerriweather%2Bsans;fontColor=#333333;" parent="jIR6ZfUCpSBKofC2tpVq-15" vertex="1">
          <mxGeometry x="20" y="48" width="110" height="192" as="geometry" />
        </mxCell>
        <mxCell id="jIR6ZfUCpSBKofC2tpVq-14" value="I am mostly using this to give use a goal un-muddied by the codebase." style="rounded=1;whiteSpace=wrap;html=1;fontSize=12;startSize=0;align=left;labelPosition=center;verticalLabelPosition=middle;verticalAlign=top;shadow=0;fontFamily=Merriweather sans;fontStyle=0;strokeColor=#666666;fillColor=#f5f5f5;arcSize=9;spacingTop=1;spacingLeft=8;fontSource=https%3A%2F%2Ffonts.googleapis.com%2Fcss%3Ffamily%3DMerriweather%2Bsans;fontColor=#333333;" parent="jIR6ZfUCpSBKofC2tpVq-15" vertex="1">
          <mxGeometry x="150" y="48" width="100" height="192" as="geometry" />
        </mxCell>
        <mxCell id="jIR6ZfUCpSBKofC2tpVq-17" value="introduce exercism" style="rounded=1;whiteSpace=wrap;html=1;fontSize=12;startSize=0;align=left;labelPosition=center;verticalLabelPosition=middle;verticalAlign=top;shadow=0;fontFamily=Merriweather sans;fontStyle=0;strokeColor=#666666;fillColor=#f5f5f5;arcSize=9;spacingTop=1;spacingLeft=8;fontSource=https%3A%2F%2Ffonts.googleapis.com%2Fcss%3Ffamily%3DMerriweather%2Bsans;fontColor=#333333;" parent="jIR6ZfUCpSBKofC2tpVq-15" vertex="1">
          <mxGeometry x="270" y="48" width="96" height="192" as="geometry" />
        </mxCell>
        <mxCell id="jIR6ZfUCpSBKofC2tpVq-18" value="make a list of questions" style="rounded=1;whiteSpace=wrap;html=1;fontSize=12;startSize=0;align=left;labelPosition=center;verticalLabelPosition=middle;verticalAlign=top;shadow=0;fontFamily=Merriweather sans;fontStyle=0;strokeColor=#666666;fillColor=#f5f5f5;arcSize=9;spacingTop=1;spacingLeft=8;fontSource=https%3A%2F%2Ffonts.googleapis.com%2Fcss%3Ffamily%3DMerriweather%2Bsans;fontColor=#333333;" parent="jIR6ZfUCpSBKofC2tpVq-15" vertex="1">
          <mxGeometry x="386" y="48" width="96" height="192" as="geometry" />
        </mxCell>
        <mxCell id="jIR6ZfUCpSBKofC2tpVq-19" value="wrap up" style="rounded=1;whiteSpace=wrap;html=1;fontSize=12;startSize=0;align=left;shadow=0;fontFamily=Merriweather sans;fontStyle=0;verticalAlign=top;strokeColor=#666666;fillColor=#f5f5f5;spacingTop=1;spacingLeft=8;arcSize=9;fontSource=https%3A%2F%2Ffonts.googleapis.com%2Fcss%3Ffamily%3DMerriweather%2Bsans;fontColor=#333333;" parent="jIR6ZfUCpSBKofC2tpVq-15" vertex="1">
          <mxGeometry x="502" y="48" width="48" height="192" as="geometry" />
        </mxCell>
        <mxCell id="jIR6ZfUCpSBKofC2tpVq-20" value="pick a route" style="rounded=1;whiteSpace=wrap;html=1;fontSize=12;startSize=0;align=left;labelPosition=center;verticalLabelPosition=middle;verticalAlign=top;shadow=0;fontFamily=Merriweather sans;fontStyle=0;strokeColor=#666666;fillColor=#f5f5f5;arcSize=9;spacingTop=1;spacingLeft=8;fontSource=https%3A%2F%2Ffonts.googleapis.com%2Fcss%3Ffamily%3DMerriweather%2Bsans;fontColor=#333333;" parent="jIR6ZfUCpSBKofC2tpVq-15" vertex="1">
          <mxGeometry x="570" y="48" width="96" height="192" as="geometry" />
        </mxCell>
        <mxCell id="sgYHW2Ao1Utyltwwnt-T-0" value="&amp;nbsp;" style="text;whiteSpace=wrap;html=1;" parent="jIR6ZfUCpSBKofC2tpVq-1" vertex="1">
          <mxGeometry x="610" y="720" width="30" height="30" as="geometry" />
        </mxCell>
        <mxCell id="-6Zj-RWA7nnzXIyLVMUi-0" value="/edit" style="rounded=1;whiteSpace=wrap;html=1;fontStyle=1;arcSize=5;align=left;verticalAlign=top;spacingLeft=8;spacingTop=8;fontSize=12;fontColor=#333333;strokeColor=#666666;fillColor=#E6E6E6;spacingBottom=16;spacing=8;container=1;dropTarget=1;recursiveResize=1;collapsible=0;" vertex="1" parent="jIR6ZfUCpSBKofC2tpVq-1">
          <mxGeometry x="480" y="970" width="710" height="270" as="geometry" />
        </mxCell>
        <mxCell id="-6Zj-RWA7nnzXIyLVMUi-1" value="pane" style="rounded=1;whiteSpace=wrap;html=1;fontStyle=1;arcSize=5;align=left;verticalAlign=top;spacingLeft=8;spacingTop=8;fontSize=12;fontColor=#333333;strokeColor=#666666;fillColor=#E6E6E6;spacingBottom=16;spacing=8;container=1;dropTarget=1;recursiveResize=0;collapsible=0;" vertex="1" parent="-6Zj-RWA7nnzXIyLVMUi-0">
          <mxGeometry x="445.8139534883721" y="40" width="214.65116279069767" height="165" as="geometry" />
        </mxCell>
        <mxCell id="-6Zj-RWA7nnzXIyLVMUi-2" value="pane" style="rounded=1;whiteSpace=wrap;html=1;fontStyle=1;arcSize=5;align=left;verticalAlign=top;spacingLeft=8;spacingTop=8;fontSize=12;fontColor=#333333;strokeColor=#666666;fillColor=#E6E6E6;spacingBottom=16;spacing=8;container=1;dropTarget=1;recursiveResize=0;collapsible=0;" vertex="1" parent="-6Zj-RWA7nnzXIyLVMUi-0">
          <mxGeometry x="90.00116279069766" y="60" width="214.65116279069767" height="165" as="geometry" />
        </mxCell>
      </root>
    </mxGraphModel>
  </diagram>
  <diagram id="aFr2AgzT1Abj3FkpAUDU" name="CLP-263">
    <mxGraphModel dx="1768" dy="919" grid="1" gridSize="10" guides="1" tooltips="1" connect="1" arrows="1" fold="1" page="1" pageScale="1" pageWidth="850" pageHeight="1100" math="0" shadow="0">
      <root>
        <mxCell id="WRgc1JJDSytTLF8EMnlb-0" />
        <mxCell id="WRgc1JJDSytTLF8EMnlb-1" parent="WRgc1JJDSytTLF8EMnlb-0" />
      </root>
    </mxGraphModel>
  </diagram>
</mxfile>
